TITLE ""
FILE "1Q_t_0301-0309.mp3" MP3
  TRACK 01 AUDIO
    TITLE "1Q_t_0301-0309_01"
    INDEX 01 00:00:00
  TRACK 02 AUDIO
    TITLE "1Q_t_0301-0309_02"
    INDEX 01 00:01:39
  TRACK 03 AUDIO
    TITLE "1Q_t_0301-0309_03"
    INDEX 01 00:02:17
  TRACK 04 AUDIO
    TITLE "1Q_t_0301-0309_04"
    INDEX 01 00:03:22
  TRACK 05 AUDIO
    TITLE "1Q_t_0301-0309_05"
    INDEX 01 00:03:75
  TRACK 06 AUDIO
    TITLE "1Q_t_0301-0309_06"
    INDEX 01 00:05:17
  TRACK 07 AUDIO
    TITLE "1Q_t_0301-0309_07"
    INDEX 01 00:05:33
  TRACK 08 AUDIO
    TITLE "1Q_t_0301-0309_08"
    INDEX 01 00:09:01
  TRACK 09 AUDIO
    TITLE "1Q_t_0301-0309_09"
    INDEX 01 00:09:17
  TRACK 10 AUDIO
    TITLE "1Q_t_0301-0309_10"
    INDEX 01 00:16:11
  TRACK 11 AUDIO
    TITLE "1Q_t_0301-0309_11"
    INDEX 01 00:16:64
  TRACK 12 AUDIO
    TITLE "1Q_t_0301-0309_12"
    INDEX 01 00:18:04
  TRACK 13 AUDIO
    TITLE "1Q_t_0301-0309_13"
    INDEX 01 00:18:20
  TRACK 14 AUDIO
    TITLE "1Q_t_0301-0309_14"
    INDEX 01 00:21:12
  TRACK 15 AUDIO
    TITLE "1Q_t_0301-0309_15"
    INDEX 01 00:21:26
  TRACK 16 AUDIO
    TITLE "1Q_t_0301-0309_16"
    INDEX 01 00:26:72
  TRACK 17 AUDIO
    TITLE "1Q_t_0301-0309_17"
    INDEX 01 00:27:48
  TRACK 18 AUDIO
    TITLE "1Q_t_0301-0309_18"
    INDEX 01 00:28:63
  TRACK 19 AUDIO
    TITLE "1Q_t_0301-0309_19"
    INDEX 01 00:29:02
  TRACK 20 AUDIO
    TITLE "1Q_t_0301-0309_20"
    INDEX 01 00:32:22
  TRACK 21 AUDIO
    TITLE "1Q_t_0301-0309_21"
    INDEX 01 00:32:36
  TRACK 22 AUDIO
    TITLE "1Q_t_0301-0309_22"
    INDEX 01 00:39:04
  TRACK 23 AUDIO
    TITLE "1Q_t_0301-0309_23"
    INDEX 01 00:39:55
  TRACK 24 AUDIO
    TITLE "1Q_t_0301-0309_24"
    INDEX 01 00:40:69
  TRACK 25 AUDIO
    TITLE "1Q_t_0301-0309_25"
    INDEX 01 00:41:09
  TRACK 26 AUDIO
    TITLE "1Q_t_0301-0309_26"
    INDEX 01 00:44:35
  TRACK 27 AUDIO
    TITLE "1Q_t_0301-0309_27"
    INDEX 01 00:44:51
  TRACK 28 AUDIO
    TITLE "1Q_t_0301-0309_28"
    INDEX 01 00:49:34
  TRACK 29 AUDIO
    TITLE "1Q_t_0301-0309_29"
    INDEX 01 00:50:14
  TRACK 30 AUDIO
    TITLE "1Q_t_0301-0309_30"
    INDEX 01 00:51:33
  TRACK 31 AUDIO
    TITLE "1Q_t_0301-0309_31"
    INDEX 01 00:51:49
  TRACK 32 AUDIO
    TITLE "1Q_t_0301-0309_32"
    INDEX 01 00:55:54
  TRACK 33 AUDIO
    TITLE "1Q_t_0301-0309_33"
    INDEX 01 00:55:68
  TRACK 34 AUDIO
    TITLE "1Q_t_0301-0309_34"
    INDEX 01 00:59:52
  TRACK 35 AUDIO
    TITLE "1Q_t_0301-0309_35"
    INDEX 01 01:00:30
  TRACK 36 AUDIO
    TITLE "1Q_t_0301-0309_36"
    INDEX 01 01:01:39
  TRACK 37 AUDIO
    TITLE "1Q_t_0301-0309_37"
    INDEX 01 01:01:57
  TRACK 38 AUDIO
    TITLE "1Q_t_0301-0309_38"
    INDEX 01 01:03:28
  TRACK 39 AUDIO
    TITLE "1Q_t_0301-0309_39"
    INDEX 01 01:03:42
  TRACK 40 AUDIO
    TITLE "1Q_t_0301-0309_40"
    INDEX 01 01:08:69
  TRACK 41 AUDIO
    TITLE "1Q_t_0301-0309_41"
    INDEX 01 01:09:41
  TRACK 42 AUDIO
    TITLE "1Q_t_0301-0309_42"
    INDEX 01 01:10:44
  TRACK 43 AUDIO
    TITLE "1Q_t_0301-0309_43"
    INDEX 01 01:10:60
  TRACK 44 AUDIO
    TITLE "1Q_t_0301-0309_44"
    INDEX 01 01:16:35
  TRACK 45 AUDIO
    TITLE "1Q_t_0301-0309_45"
    INDEX 01 01:16:51
  TRACK 46 AUDIO
    TITLE "1Q_t_0301-0309_46"
    INDEX 01 01:24:15
  TRACK 47 AUDIO
    TITLE "1Q_t_0301-0309_47"
    INDEX 01 01:24:66
  TRACK 48 AUDIO
    TITLE "1Q_t_0301-0309_48"
    INDEX 01 01:26:18
  TRACK 49 AUDIO
    TITLE "1Q_t_0301-0309_49"
    INDEX 01 01:26:33
  TRACK 50 AUDIO
    TITLE "1Q_t_0301-0309_50"
    INDEX 01 01:29:45
  TRACK 51 AUDIO
    TITLE "1Q_t_0301-0309_51"
    INDEX 01 01:29:57
  TRACK 52 AUDIO
    TITLE "1Q_t_0301-0309_52"
    INDEX 01 01:35:21
  TRACK 53 AUDIO
    TITLE "1Q_t_0301-0309_53"
    INDEX 01 01:36:02
  TRACK 54 AUDIO
    TITLE "1Q_t_0301-0309_54"
    INDEX 01 01:37:02
  TRACK 55 AUDIO
    TITLE "1Q_t_0301-0309_55"
    INDEX 01 01:37:18
  TRACK 56 AUDIO
    TITLE "1Q_t_0301-0309_56"
    INDEX 01 01:42:60
  TRACK 57 AUDIO
    TITLE "1Q_t_0301-0309_57"
    INDEX 01 01:42:74
  TRACK 58 AUDIO
    TITLE "1Q_t_0301-0309_58"
    INDEX 01 01:48:29
